<mxfile host="Electron" agent="Mozilla/5.0 (X11; Linux x86_64) AppleWebKit/537.36 (KHTML, like Gecko) draw.io/27.0.9 Chrome/134.0.6998.205 Electron/35.4.0 Safari/537.36" version="27.0.9">
  <diagram name="Page-1" id="Y7PiHAJMXb5L534mi_iz">
    <mxGraphModel dx="983" dy="603" grid="1" gridSize="10" guides="1" tooltips="1" connect="1" arrows="1" fold="1" page="1" pageScale="1" pageWidth="850" pageHeight="1100" math="0" shadow="0">
      <root>
        <mxCell id="0" />
        <mxCell id="1" parent="0" />
        <mxCell id="3XviwK8hStDhzz_i2hwB-1" value="Usuario" style="shape=umlActor;verticalLabelPosition=bottom;verticalAlign=top;html=1;" parent="1" vertex="1">
          <mxGeometry x="20" y="195" width="30" height="60" as="geometry" />
        </mxCell>
        <mxCell id="3XviwK8hStDhzz_i2hwB-2" value="GestiÃ³n de preferencias" style="swimlane;whiteSpace=wrap;html=1;movable=1;resizable=1;rotatable=1;deletable=1;editable=1;locked=0;connectable=1;" parent="1" vertex="1">
          <mxGeometry x="110" y="30" width="320" height="390" as="geometry">
            <mxRectangle x="170" y="90" width="140" height="30" as="alternateBounds" />
          </mxGeometry>
        </mxCell>
        <mxCell id="3XviwK8hStDhzz_i2hwB-3" value="Cambiar de idioma" style="ellipse;whiteSpace=wrap;html=1;" parent="3XviwK8hStDhzz_i2hwB-2" vertex="1">
          <mxGeometry x="80" y="100" width="150" height="45" as="geometry" />
        </mxCell>
        <mxCell id="3XviwK8hStDhzz_i2hwB-5" value="Cambiar entre modo&lt;br&gt;oscuro y claro" style="ellipse;whiteSpace=wrap;html=1;" parent="3XviwK8hStDhzz_i2hwB-2" vertex="1">
          <mxGeometry x="90" y="230" width="180" height="60" as="geometry" />
        </mxCell>
        <mxCell id="3XviwK8hStDhzz_i2hwB-6" style="edgeStyle=orthogonalEdgeStyle;rounded=0;orthogonalLoop=1;jettySize=auto;html=1;exitX=0.5;exitY=1;exitDx=0;exitDy=0;" parent="3XviwK8hStDhzz_i2hwB-2" source="3XviwK8hStDhzz_i2hwB-5" target="3XviwK8hStDhzz_i2hwB-5" edge="1">
          <mxGeometry relative="1" as="geometry" />
        </mxCell>
        <mxCell id="3XviwK8hStDhzz_i2hwB-13" value="" style="endArrow=none;html=1;rounded=0;entryX=0.004;entryY=0.676;entryDx=0;entryDy=0;entryPerimeter=0;" parent="1" source="3XviwK8hStDhzz_i2hwB-1" target="3XviwK8hStDhzz_i2hwB-3" edge="1">
          <mxGeometry width="50" height="50" relative="1" as="geometry">
            <mxPoint x="40" y="205" as="sourcePoint" />
            <mxPoint x="140" y="165" as="targetPoint" />
          </mxGeometry>
        </mxCell>
        <mxCell id="3XviwK8hStDhzz_i2hwB-14" value="" style="endArrow=none;html=1;rounded=0;entryX=0;entryY=0.333;entryDx=0;entryDy=0;entryPerimeter=0;" parent="1" source="3XviwK8hStDhzz_i2hwB-1" target="3XviwK8hStDhzz_i2hwB-5" edge="1">
          <mxGeometry width="50" height="50" relative="1" as="geometry">
            <mxPoint x="30" y="255" as="sourcePoint" />
            <mxPoint x="180" y="325" as="targetPoint" />
          </mxGeometry>
        </mxCell>
      </root>
    </mxGraphModel>
  </diagram>
</mxfile>
